<svg width="0" height="0" class="hidden">
  <symbol version="1.1" xmlns="http://www.w3.org/2000/svg" xmlns:xlink="http://www.w3.org/1999/xlink" xml:space="preserve" viewBox="0 0 512 512" id="wordpress-svgrepo-com">
    <g id="7935ec95c421cee6d86eb22ecd133f51">
      <path d="M0.513,255.987c0,101.127,58.76,188.531,144.006,229.938L22.645,152.016
		C8.472,183.779,0.513,218.96,0.513,255.987z M428.476,243.101c0-31.588-11.341-53.446-21.06-70.45
		c-12.949-21.059-25.088-38.874-25.088-59.92c0-23.492,17.803-45.349,42.891-45.349c1.148,0,2.221,0.137,3.307,0.199
		C383.089,25.938,322.521,0.5,256,0.5c-89.263,0-167.784,45.798-213.47,115.149c6.001,0.2,11.652,0.325,16.443,0.325
		c26.723,0,68.104-3.244,68.104-3.244c13.76-0.823,15.395,19.412,1.634,21.046c0,0-13.848,1.622-29.243,2.42l93.042,276.747
		l55.903-167.685l-39.797-109.062c-13.773-0.798-26.798-2.42-26.798-2.42c-13.761-0.824-12.151-21.87,1.622-21.046
		c0,0,42.18,3.244,67.293,3.244c26.71,0,68.092-3.244,68.092-3.244c13.773-0.823,15.395,19.412,1.622,21.046
		c0,0-13.86,1.622-29.23,2.42l92.332,274.638l25.487-85.134C421.988,292.491,428.476,264.957,428.476,243.101z M260.491,278.331
		l-76.662,222.765C206.722,507.819,230.937,511.5,256,511.5c29.768,0,58.299-5.14,84.847-14.484c-0.674-1.098-1.31-2.258-1.821-3.53
		L260.491,278.331z M480.199,133.427c1.098,8.134,1.722,16.867,1.722,26.261c0,25.924-4.866,55.08-19.425,91.509l-78.035,225.621
		c75.952-44.289,127.026-126.565,127.026-220.831C511.487,211.574,500.135,169.806,480.199,133.427z"></path>
    </g>
  </symbol>
  <symbol fill="none" xmlns="http://www.w3.org/2000/svg" viewBox="0 0 24 24" id="settings-svgrepo-com">
    <circle cx="12" cy="12" r="3" stroke="#1C274C" stroke-width="1.5"></circle>
    <path d="M3.66122 10.6392C4.13377 10.9361 4.43782 11.4419 4.43782 11.9999C4.43781 12.558 4.13376 13.0638 3.66122 13.3607C3.33966 13.5627 3.13248 13.7242 2.98508 13.9163C2.66217 14.3372 2.51966 14.869 2.5889 15.3949C2.64082 15.7893 2.87379 16.1928 3.33973 16.9999C3.80568 17.8069 4.03865 18.2104 4.35426 18.4526C4.77508 18.7755 5.30694 18.918 5.83284 18.8488C6.07287 18.8172 6.31628 18.7185 6.65196 18.5411C7.14544 18.2803 7.73558 18.2699 8.21895 18.549C8.70227 18.8281 8.98827 19.3443 9.00912 19.902C9.02332 20.2815 9.05958 20.5417 9.15224 20.7654C9.35523 21.2554 9.74458 21.6448 10.2346 21.8478C10.6022 22 11.0681 22 12 22C12.9319 22 13.3978 22 13.7654 21.8478C14.2554 21.6448 14.6448 21.2554 14.8478 20.7654C14.9404 20.5417 14.9767 20.2815 14.9909 19.9021C15.0117 19.3443 15.2977 18.8281 15.7811 18.549C16.2644 18.27 16.8545 18.2804 17.3479 18.5412C17.6837 18.7186 17.9271 18.8173 18.1671 18.8489C18.693 18.9182 19.2249 18.7756 19.6457 18.4527C19.9613 18.2106 20.1943 17.807 20.6603 17C20.8677 16.6407 21.029 16.3614 21.1486 16.1272M20.3387 13.3608C19.8662 13.0639 19.5622 12.5581 19.5621 12.0001C19.5621 11.442 19.8662 10.9361 20.3387 10.6392C20.6603 10.4372 20.8674 10.2757 21.0148 10.0836C21.3377 9.66278 21.4802 9.13092 21.411 8.60502C21.3591 8.2106 21.1261 7.80708 20.6601 7.00005C20.1942 6.19301 19.9612 5.7895 19.6456 5.54732C19.2248 5.22441 18.6929 5.0819 18.167 5.15113C17.927 5.18274 17.6836 5.2814 17.3479 5.45883C16.8544 5.71964 16.2643 5.73004 15.781 5.45096C15.2977 5.1719 15.0117 4.6557 14.9909 4.09803C14.9767 3.71852 14.9404 3.45835 14.8478 3.23463C14.6448 2.74458 14.2554 2.35523 13.7654 2.15224C13.3978 2 12.9319 2 12 2C11.0681 2 10.6022 2 10.2346 2.15224C9.74458 2.35523 9.35523 2.74458 9.15224 3.23463C9.05958 3.45833 9.02332 3.71848 9.00912 4.09794C8.98826 4.65566 8.70225 5.17191 8.21891 5.45096C7.73557 5.73002 7.14548 5.71959 6.65205 5.4588C6.31633 5.28136 6.0729 5.18269 5.83285 5.15108C5.30695 5.08185 4.77509 5.22436 4.35427 5.54727C4.03866 5.78945 3.80569 6.19297 3.33974 7C3.13231 7.35929 2.97105 7.63859 2.85138 7.87273" stroke="#1C274C" stroke-width="1.5" stroke-linecap="round"></path>
  </symbol>
  <symbol fill="none" xmlns="http://www.w3.org/2000/svg" viewBox="0 0 24 24" id="search-svgrepo-com">
    <path d="M15.7955 15.8111L21 21M18 10.5C18 14.6421 14.6421 18 10.5 18C6.35786 18 3 14.6421 3 10.5C3 6.35786 6.35786 3 10.5 3C14.6421 3 18 6.35786 18 10.5Z" stroke="#000000" stroke-width="2" stroke-linecap="round" stroke-linejoin="round"></path>
  </symbol>
  <symbol fill="#000000" version="1.1" id="quotes-end-svgrepo-com" xmlns="http://www.w3.org/2000/svg" xmlns:xlink="http://www.w3.org/1999/xlink" xml:space="preserve" viewBox="0 0 32 32">
    <g>
      <path d="M23,9c-2.8,0-5,2.2-5,5s2.2,5,5,5c0.3,0,0.7,0,1-0.1c-1.3,1.3-3,2.1-5,2.1c-0.6,0-1,0.4-1,1s0.4,1,1,1c5,0,9-4,9-9
		C28,11.2,25.8,9,23,9z"></path>
      <path d="M9,9c-2.8,0-5,2.2-5,5s2.2,5,5,5c0.3,0,0.7,0,1-0.1C8.7,20.2,7,21,5,21c-0.6,0-1,0.4-1,1s0.4,1,1,1c5,0,9-4,9-9
		C14,11.2,11.8,9,9,9z"></path>
    </g>
  </symbol>
  <symbol fill="#000000" version="1.1" id="picture-svgrepo-com" xmlns="http://www.w3.org/2000/svg" xmlns:xlink="http://www.w3.org/1999/xlink" enable-background="new 0 0 72 72" xml:space="preserve" viewBox="0 0 72 72">
    <g>
      <path d="M61.568,4.5H10.432C6.604,4.5,3.5,7.604,3.5,11.432v49.136c0,3.828,3.104,6.933,6.932,6.933h51.136
		c3.828,0,6.932-3.104,6.932-6.933h0.001V11.432C68.501,7.604,65.396,4.5,61.568,4.5z M7.5,60.568v-9.591l14.159-20.253
		c0.437-0.625,1.046-1.002,1.716-1.061c0.677-0.067,1.337,0.206,1.876,0.745l12.44,12.439L22.319,63.501H10.432
		C8.813,63.501,7.5,62.188,7.5,60.568z M64.501,60.568c0,1.619-1.313,2.933-2.933,2.933H24.811l17.733-23.823
		c0.464-0.621,1.112-0.998,1.828-1.061c0.722-0.061,1.419,0.195,1.981,0.727l10.938,10.318c0.4,0.379,1.034,0.359,1.414-0.041
		c0.379-0.402,0.359-1.035-0.041-1.414L47.727,37.889c-0.984-0.928-2.242-1.38-3.531-1.264c-1.291,0.113-2.447,0.773-3.256,1.859
		l-2.041,2.742L26.666,28.994c-0.966-0.966-2.196-1.432-3.466-1.323c-1.27,0.111-2.4,0.789-3.18,1.907L7.5,47.487V11.432
		C7.5,9.813,8.813,8.5,10.432,8.5h51.136c1.619,0,2.932,1.313,2.932,2.932h0.001V60.568z"></path>
      <path d="M61.076,50.48c-0.401-0.379-1.035-0.36-1.413,0.039c-0.38,0.402-0.361,1.035,0.04,1.414l1.195,1.129
		c0.193,0.182,0.44,0.273,0.687,0.273c0.267,0,0.53-0.105,0.726-0.314c0.381-0.399,0.361-1.033-0.039-1.412L61.076,50.48z"></path>
      <path d="M44.771,12.372c-4.766,0-8.642,3.876-8.642,8.641c0,4.765,3.876,8.642,8.642,8.642c4.764,0,8.642-3.877,8.642-8.642
		C53.413,16.248,49.536,12.372,44.771,12.372z M44.771,27.656c-3.662,0-6.642-2.979-6.642-6.642s2.979-6.641,6.642-6.641
		s6.642,2.978,6.642,6.641S48.434,27.656,44.771,27.656z"></path>
    </g>
  </symbol>
  <symbol fill="none" xmlns="http://www.w3.org/2000/svg" viewBox="0 0 24 24" id="menu-svgrepo-com">
    <path d="M1 12C1 11.4477 1.44772 11 2 11H22C22.5523 11 23 11.4477 23 12C23 12.5523 22.5523 13 22 13H2C1.44772 13 1 12.5523 1 12Z" fill="#0F0F0F"></path>
    <path d="M1 4C1 3.44772 1.44772 3 2 3H22C22.5523 3 23 3.44772 23 4C23 4.55228 22.5523 5 22 5H2C1.44772 5 1 4.55228 1 4Z" fill="#0F0F0F"></path>
    <path d="M1 20C1 19.4477 1.44772 19 2 19H22C22.5523 19 23 19.4477 23 20C23 20.5523 22.5523 21 22 21H2C1.44772 21 1 20.5523 1 20Z" fill="#0F0F0F"></path>
  </symbol>
  <symbol fill="none" xmlns="http://www.w3.org/2000/svg" viewBox="0 0 24 24" id="line-xl-svgrepo-com">
    <g id="Interface / Line_Xl">
      <path id="Vector" d="M12 21V3" stroke="#000000" stroke-width="2" stroke-linecap="round" stroke-linejoin="round"></path>
    </g>
  </symbol>
  <symbol fill="#000000" xmlns="http://www.w3.org/2000/svg" viewBox="0 0 64 64" id="growth-graph-increase-svgrepo-com">
    <g id="a"></g>
    <g id="b">
      <path d="M53.2676,21.2861c-1.0825-.6357-2.3833-.6509-3.4761-.0396-2.353,1.3145-4.3789,2.7593-6.021,4.2944-.4897,.457-.7705,1.1182-.7705,1.814v26.145c0,.8271,.6729,1.5,1.5,1.5h9c.8271,0,1.5-.6729,1.5-1.5V24.3076c0-1.2554-.6475-2.3848-1.7324-3.0215Zm.7324,32.2139c0,.2759-.2241,.5-.5,.5h-9c-.2759,0-.5-.2241-.5-.5V27.355c0-.4194,.165-.8145,.4531-1.0835,1.5835-1.48,3.5435-2.877,5.8257-4.1519,.3818-.2129,.7988-.3193,1.2153-.3193,.436,0,.8721,.1162,1.2676,.3481,.7754,.4556,1.2383,1.2627,1.2383,2.1592v29.1924Zm-17.7324-22.2139c-1.083-.6357-2.3828-.6509-3.4761-.0396-2.353,1.3145-4.3789,2.7593-6.021,4.2944-.4897,.457-.7705,1.1182-.7705,1.814v16.145c0,.8271,.6729,1.5,1.5,1.5h9c.8271,0,1.5-.6729,1.5-1.5v-19.1924c0-1.2554-.6475-2.3848-1.7324-3.0215Zm.7324,22.2139c0,.2759-.2241,.5-.5,.5h-9c-.2759,0-.5-.2241-.5-.5v-16.145c0-.4194,.165-.8145,.4531-1.0835,1.5835-1.48,3.5435-2.877,5.8257-4.1519,.3818-.2129,.7988-.3193,1.2153-.3193,.436,0,.8721,.1162,1.2676,.3481,.7754,.4556,1.2383,1.2627,1.2383,2.1592v19.1924Zm-17.7324-13.2139c-1.0835-.6357-2.3833-.6509-3.4761-.0396-2.353,1.3145-4.3789,2.7593-6.021,4.2944-.4897,.457-.7705,1.1182-.7705,1.814v7.145c0,.8271,.6729,1.5,1.5,1.5h9c.8271,0,1.5-.6729,1.5-1.5v-10.1924c0-1.2554-.6475-2.3848-1.7324-3.0215Zm.7324,13.2139c0,.2759-.2241,.5-.5,.5H10.5c-.2759,0-.5-.2241-.5-.5v-7.145c0-.4194,.165-.8145,.4531-1.0835,1.5835-1.48,3.5435-2.877,5.8257-4.1519,.3818-.2129,.7988-.3193,1.2153-.3193,.436,0,.8721,.1162,1.2676,.3481,.7754,.4556,1.2383,1.2627,1.2383,2.1592v10.1924ZM43.6836,20.1655c.3647-3.4077,.4043-6.7339,.1177-9.8862-.0664-.7373-.6958-1.2827-1.4419-1.272-3.7036,.1211-7.1143,.7529-10.1372,1.8789-.5161,.1924-.8765,.6313-.9644,1.1743-.0869,.54,.1152,1.0674,.542,1.4097l1.6562,1.3315c-.9927,1.4741-5.3232,7.1528-14.8311,10.1787-1.1265,.3579-2.333,.6167-3.4995,.8667-3.2983,.7065-6.4131,1.3745-6.0996,4.1621,.0684,.6157,.4351,1.4844,1.7964,2.125,1.188,.5591,2.9023,.8423,4.8721,.8423,4.1152,0,9.3442-1.2358,13.21-3.7739,6.1064-4.0073,9.9341-7.9927,11.0273-9.1943l1.4014,1.1226c.4146,.3335,.9805,.4111,1.4722,.2065,.4937-.2056,.8223-.6436,.8784-1.1719Zm-.9941-.1064c-.0244,.23-.1958,.3252-.2686,.3555-.1582,.0654-.3306,.042-.4629-.064l-1.772-1.4199c-.2114-.1699-.5195-.1392-.6943,.0674-.0391,.0464-3.9951,4.6826-11.1362,9.3687-5.3623,3.5215-13.7422,4.4468-17.1074,2.8628-.7568-.356-1.1699-.8037-1.228-1.3315-.2026-1.7969,1.8877-2.3384,5.3149-3.0732,1.1899-.2549,2.4204-.5186,3.5933-.8911,11.3286-3.6055,15.4551-10.6943,15.6255-10.9946,.1206-.2134,.0693-.4829-.1221-.6362l-2.0059-1.6118c-.2051-.165-.1943-.3843-.1807-.4707,.0142-.0884,.0747-.3032,.3257-.3965,2.9219-1.0884,6.2261-1.6997,9.8208-1.8174h.0122c.2046,0,.3833,.1602,.4014,.3628v.0005c.2808,3.0869,.2422,6.3472-.1157,9.6895Z"></path>
    </g>
  </symbol>
  <symbol version="1.1" xmlns="http://www.w3.org/2000/svg" xmlns:xlink="http://www.w3.org/1999/xlink" viewBox="0 -0.5 17 17" id="customer-support-svgrepo-com">
    <title>715</title>
    <defs></defs>
    <g stroke="none" stroke-width="1" fill="none" fill-rule="evenodd">
      <g transform="translate(1.000000, 0.000000)" fill="#434343">
        <g transform="translate(0.000000, 2.000000)">
          <path d="M8.005,10.094 C6.563,10.094 5.098,9.238 4.243,8.105 C0.141,8.105 0.017,13.965 0.017,13.965 L15.992,13.965 C15.992,13.965 16.314,8.079 11.701,8.079 C10.847,9.226 9.447,10.094 8.005,10.094 Z"></path>
          <path d="M11.441,3.069 C11.441,4.755 9.902,7.979 8.002,7.979 C6.105,7.979 4.565,4.754 4.565,3.069 C4.565,1.384 6.104,0.016 8.002,0.016 C9.902,0.017 11.441,1.385 11.441,3.069 L11.441,3.069 Z"></path>
        </g>
        <path d="M12.975,3.614 C12.975,3.298 12.535,3.043 11.989,3.041 L11.989,2.39 C11.989,2.293 12.026,0.022 8.014,0.022 C4.004,0.022 4.041,2.293 4.041,2.39 L4.041,3.064 C4.031,3.064 4.023,3.061 4.014,3.061 C3.471,3.061 3.034,3.312 3.034,3.623 L3.034,6.377 C3.034,6.686 3.472,6.938 4.014,6.938 C4.556,6.938 4.996,6.686 4.996,6.377 L4.996,3.623 C4.996,3.58 4.969,3.541 4.953,3.501 L4.953,2.75 C4.953,2.681 4.665,0.967 8.014,0.967 C11.364,0.967 11.016,2.681 11.016,2.75 L11.016,3.541 C11.01,3.566 10.991,3.588 10.991,3.614 L10.991,6.431 C10.991,6.748 11.434,7.005 11.983,7.005 C11.995,7.005 12.004,7.001 12.016,7.001 L12.016,8.03 L11.032,8.03 L11.032,9 L12.985,9 L12.975,3.614 L12.975,3.614 Z"></path>
      </g>
    </g>
  </symbol>
  <symbol fill="none" xmlns="http://www.w3.org/2000/svg" viewBox="0 0 24 24" id="computer-svgrepo-com">
    <path fill-rule="evenodd" clip-rule="evenodd" d="M7.78799 2H16.212C17.0305 1.99999 17.7061 1.99998 18.2561 2.04565C18.8274 2.0931 19.3523 2.19496 19.8439 2.45035C20.5745 2.82985 21.1702 3.42553 21.5497 4.1561C21.805 4.64774 21.9069 5.17258 21.9543 5.74393C22 6.29394 22 6.96949 22 7.78802V11.212C22 12.0305 22 12.7061 21.9543 13.2561C21.9069 13.8274 21.805 14.3523 21.5497 14.8439C21.1702 15.5745 20.5745 16.1702 19.8439 16.5497C19.3523 16.805 18.8274 16.9069 18.2561 16.9544C17.7061 17 17.0305 17 16.212 17H13V19H17C17.5523 19 18 19.4477 18 20C18 20.5523 17.5523 21 17 21H7C6.44772 21 6 20.5523 6 20C6 19.4477 6.44772 19 7 19H11V17H7.78798C6.96946 17 6.29393 17 5.74393 16.9544C5.17258 16.9069 4.64774 16.805 4.1561 16.5497C3.42553 16.1702 2.82985 15.5745 2.45035 14.8439C2.19496 14.3523 2.0931 13.8274 2.04565 13.2561C1.99998 12.7061 1.99999 12.0305 2 11.212V7.78799C1.99999 6.96947 1.99998 6.29393 2.04565 5.74393C2.0931 5.17258 2.19496 4.64774 2.45035 4.1561C2.82985 3.42553 3.42553 2.82985 4.1561 2.45035C4.64774 2.19496 5.17258 2.0931 5.74393 2.04565C6.29393 1.99998 6.96947 1.99999 7.78799 2ZM16.17 15C17.041 15 17.6331 14.9992 18.0905 14.9612C18.536 14.9242 18.7634 14.8572 18.9219 14.7748C19.2872 14.5851 19.5851 14.2872 19.7748 13.9219C19.8572 13.7634 19.9242 13.536 19.9612 13.0905C19.9992 12.6331 20 12.041 20 11.17V7.83C20 6.95898 19.9992 6.36686 19.9612 5.90945C19.9242 5.46401 19.8572 5.23663 19.7748 5.07805C19.5851 4.71277 19.2872 4.41493 18.9219 4.22517C18.7634 4.1428 18.536 4.07578 18.0905 4.03879C17.6331 4.0008 17.041 4 16.17 4H7.83C6.95898 4 6.36686 4.0008 5.90945 4.03879C5.46401 4.07578 5.23663 4.1428 5.07805 4.22517C4.71277 4.41493 4.41493 4.71277 4.22517 5.07805C4.1428 5.23663 4.07578 5.46401 4.03879 5.90945C4.0008 6.36686 4 6.95898 4 7.83V11.17C4 12.041 4.0008 12.6331 4.03879 13.0905C4.07578 13.536 4.1428 13.7634 4.22517 13.9219C4.41493 14.2872 4.71277 14.5851 5.07805 14.7748C5.23663 14.8572 5.46401 14.9242 5.90945 14.9612C6.36686 14.9992 6.95898 15 7.83 15H16.17Z" fill="#0F1729"></path>
  </symbol>
  <symbol fill="none" xmlns="http://www.w3.org/2000/svg" viewBox="0 0 24 24" id="clock-two-svgrepo-com">
    <path d="M12 7V12L14.5 10.5M21 12C21 16.9706 16.9706 21 12 21C7.02944 21 3 16.9706 3 12C3 7.02944 7.02944 3 12 3C16.9706 3 21 7.02944 21 12Z" stroke="#000000" stroke-width="2" stroke-linecap="round" stroke-linejoin="round"></path>
  </symbol>
  <symbol fill="none" xmlns="http://www.w3.org/2000/svg" viewBox="0 0 24 24" id="chevron-right-double-svgrepo-com">
    <path d="M6 17L11 12L6 7M13 17L18 12L13 7" stroke="#000000" stroke-width="2" stroke-linecap="round" stroke-linejoin="round"></path>
  </symbol>
</svg>